<svg preserveAspectRatio="none" width="100%" height="100%" overflow="visible" style="display: block;" viewBox="0 0 108 32" fill="none" xmlns="http://www.w3.org/2000/svg">
<path id="Logo" d="M38.8136 6.96787C43.214 6.96787 47.4021 10.4433 47.4021 16.7892V16.8601C47.4021 23.2059 43.2847 26.681 38.8136 26.681C35.9637 26.681 34.2035 25.3694 32.9361 23.8449V32H27.5871V7.32217H32.9361V10.053C34.2376 8.27981 36.0341 6.96787 38.8136 6.96787ZM57.9895 6.96787C64.2891 6.96787 67.1757 11.897 67.1757 17.2852V17.3565C67.1757 17.8894 67.1415 18.2084 67.1049 18.7045H53.9771C54.5057 21.1502 56.1951 22.4273 58.5893 22.4273C60.3836 22.4273 61.6856 21.86 63.1632 20.4772L66.225 23.2059C64.4668 25.4038 61.9316 26.7522 58.5185 26.7522C52.8504 26.7522 48.6623 22.7464 48.6623 16.9313V16.8601C48.6623 11.4353 52.4995 6.96787 57.9895 6.96787ZM99.0154 7.11036C104.859 7.11036 107.429 10.1586 107.429 15.3007V26.327H102.253V24.2696C100.951 25.7237 99.1569 26.6809 96.5533 26.6809C92.9967 26.6809 90.076 24.6252 90.076 20.8659V20.7946C90.076 16.6466 93.2086 14.7334 97.6793 14.7334C99.5789 14.7334 100.951 15.0525 102.289 15.512V15.193C102.289 12.9602 100.917 11.7179 98.2424 11.7179C96.2 11.7179 94.7569 12.1083 93.0333 12.7468L91.6947 8.63366C93.7717 7.71247 95.8121 7.11036 99.0154 7.11036ZM15.5565 1.33013L26.115 26.327H20.4489L18.1971 20.7598H7.77725L5.52503 26.327H0L10.5589 1.33013H15.5565ZM80.7561 6.96795V12.6044H80.4739C76.9193 12.6044 74.7374 14.7679 74.7374 19.3062V26.3272H69.388V7.32225H74.7374V11.1508C75.8291 8.52769 77.5873 6.82623 80.7561 6.96795ZM87.9323 7.32221V26.3271H82.5833V7.32221H87.9323ZM98.9454 17.9586C96.6583 17.9586 95.2493 18.8814 95.2493 20.5833V20.6545C95.2493 22.1078 96.446 22.9581 98.1717 22.9581C100.671 22.9581 102.36 21.5757 102.36 19.6256V18.668C101.444 18.2428 100.247 17.9586 98.9454 17.9586ZM37.4413 11.541C34.9423 11.541 32.8653 13.6332 32.8653 16.7892V16.8601C32.8653 20.016 34.9423 22.1078 37.4413 22.1078C39.9404 22.1078 42.0515 20.0504 42.0515 16.8601V16.7892C42.0515 13.6332 39.9404 11.541 37.4413 11.541ZM12.9868 7.88942L9.71516 15.9392H16.2612L12.9868 7.88942ZM57.9895 11.2932C55.7735 11.2932 54.33 12.889 53.9063 15.3351H61.9678C61.6511 12.9234 60.2421 11.2932 57.9895 11.2932ZM85.2574 0C86.8127 0 88.0732 1.27016 88.0732 2.83646C88.0732 4.40317 86.8127 5.67292 85.2574 5.67292C83.7025 5.67292 82.4416 4.40317 82.4416 2.83646C82.4416 1.27016 83.7025 0 85.2574 0Z" fill="var(--fill-0, white)"/>
</svg>
