<svg width="64" height="24" viewBox="0 0 64 24" fill="none" xmlns="http://www.w3.org/2000/svg">
<path d="M20.25 2.25H3.75C3.35218 2.25 2.97064 2.40804 2.68934 2.68934C2.40804 2.97064 2.25 3.35218 2.25 3.75V20.25C2.25 20.6478 2.40804 21.0294 2.68934 21.3107C2.97064 21.592 3.35218 21.75 3.75 21.75H20.25C20.6478 21.75 21.0294 21.592 21.3107 21.3107C21.592 21.0294 21.75 20.6478 21.75 20.25V3.75C21.75 3.35218 21.592 2.97064 21.3107 2.68934C21.0294 2.40804 20.6478 2.25 20.25 2.25ZM9 16.5C9 16.6989 8.92098 16.8897 8.78033 17.0303C8.63968 17.171 8.44891 17.25 8.25 17.25C8.05109 17.25 7.86032 17.171 7.71967 17.0303C7.57902 16.8897 7.5 16.6989 7.5 16.5V10.5C7.5 10.3011 7.57902 10.1103 7.71967 9.96967C7.86032 9.82902 8.05109 9.75 8.25 9.75C8.44891 9.75 8.63968 9.82902 8.78033 9.96967C8.92098 10.1103 9 10.3011 9 10.5V16.5ZM8.25 9C8.0275 9 7.80999 8.93402 7.62498 8.8104C7.43998 8.68679 7.29578 8.51109 7.21064 8.30552C7.12549 8.09995 7.10321 7.87375 7.14662 7.65552C7.19002 7.43729 7.29717 7.23684 7.4545 7.0795C7.61184 6.92217 7.81229 6.81502 8.03052 6.77162C8.24875 6.72821 8.47495 6.75049 8.68052 6.83564C8.88609 6.92078 9.06179 7.06498 9.1854 7.24998C9.30902 7.43499 9.375 7.6525 9.375 7.875C9.375 8.17337 9.25647 8.45952 9.0455 8.6705C8.83452 8.88147 8.54837 9 8.25 9ZM17.25 16.5C17.25 16.6989 17.171 16.8897 17.0303 17.0303C16.8897 17.171 16.6989 17.25 16.5 17.25C16.3011 17.25 16.1103 17.171 15.9697 17.0303C15.829 16.8897 15.75 16.6989 15.75 16.5V13.125C15.75 12.6277 15.5525 12.1508 15.2008 11.7992C14.8492 11.4475 14.3723 11.25 13.875 11.25C13.3777 11.25 12.9008 11.4475 12.5492 11.7992C12.1975 12.1508 12 12.6277 12 13.125V16.5C12 16.6989 11.921 16.8897 11.7803 17.0303C11.6397 17.171 11.4489 17.25 11.25 17.25C11.0511 17.25 10.8603 17.171 10.7197 17.0303C10.579 16.8897 10.5 16.6989 10.5 16.5V10.5C10.5009 10.3163 10.5693 10.1393 10.692 10.0026C10.8148 9.86596 10.9834 9.7791 11.166 9.75852C11.3485 9.73794 11.5323 9.78508 11.6824 9.891C11.8325 9.99691 11.9385 10.1542 11.9803 10.3331C12.4877 9.98894 13.0792 9.78947 13.6914 9.75611C14.3036 9.72276 14.9133 9.85679 15.455 10.1438C15.9968 10.4308 16.4501 10.86 16.7664 11.3852C17.0826 11.9105 17.2498 12.5119 17.25 13.125V16.5Z" fill="#757575"/>
<path d="M60.25 9.75001V10.5C60.2484 11.769 59.7877 12.9946 58.953 13.9504C58.1183 14.9063 56.966 15.5278 55.7087 15.7003C56.2219 16.357 56.5005 17.1666 56.5 18V21.75C56.5 21.9489 56.421 22.1397 56.2803 22.2803C56.1397 22.421 55.9489 22.5 55.75 22.5H49.75C49.5511 22.5 49.3603 22.421 49.2197 22.2803C49.079 22.1397 49 21.9489 49 21.75V20.25H46.75C45.7554 20.25 44.8016 19.8549 44.0983 19.1517C43.3951 18.4484 43 17.4946 43 16.5C43 15.9033 42.7629 15.331 42.341 14.909C41.919 14.4871 41.3467 14.25 40.75 14.25C40.5511 14.25 40.3603 14.171 40.2197 14.0303C40.079 13.8897 40 13.6989 40 13.5C40 13.3011 40.079 13.1103 40.2197 12.9697C40.3603 12.829 40.5511 12.75 40.75 12.75C41.2425 12.75 41.7301 12.847 42.1851 13.0355C42.64 13.2239 43.0534 13.5001 43.4017 13.8484C43.7499 14.1966 44.0261 14.61 44.2145 15.0649C44.403 15.5199 44.5 16.0076 44.5 16.5C44.5 17.0968 44.7371 17.669 45.159 18.091C45.581 18.513 46.1533 18.75 46.75 18.75H49V18C48.9995 17.1666 49.2781 16.357 49.7913 15.7003C48.534 15.5278 47.3817 14.9063 46.547 13.9504C45.7123 12.9946 45.2516 11.769 45.25 10.5V9.75001C45.2593 8.81793 45.5076 7.90381 45.9709 7.09501C45.7417 6.35551 45.6682 5.57653 45.755 4.80719C45.8418 4.03785 46.087 3.29484 46.4753 2.62501C46.5412 2.51097 46.6359 2.41628 46.7499 2.35045C46.864 2.28462 46.9933 2.24998 47.125 2.25001C47.9986 2.24818 48.8605 2.4507 49.6418 2.84137C50.4232 3.23205 51.1023 3.80006 51.625 4.50001H53.875C54.3977 3.80006 55.0768 3.23205 55.8582 2.84137C56.6395 2.4507 57.5014 2.24818 58.375 2.25001C58.5067 2.24998 58.636 2.28462 58.7501 2.35045C58.8641 2.41628 58.9588 2.51097 59.0247 2.62501C59.413 3.29482 59.6582 4.03787 59.7449 4.80725C59.8315 5.57662 59.7577 6.35561 59.5281 7.09501C59.9924 7.90349 60.241 8.81776 60.25 9.75001Z" fill="#757575"/>
</svg>
